<?xml version="1.0" encoding="UTF-8"?>
<svg width="92px" height="30px" viewBox="0 0 92 30" version="1.1" xmlns="http://www.w3.org/2000/svg" xmlns:xlink="http://www.w3.org/1999/xlink">
    <!-- Generator: Sketch 50.2 (55047) - http://www.bohemiancoding.com/sketch -->
    <title>download_igoogle_play</title>
    <desc>Created with Sketch.</desc>
    <defs>
        <linearGradient x1="49.9942911%" y1="-1.69586658%" x2="49.9942911%" y2="101.276612%" id="linearGradient-1">
            <stop stop-color="#90C6B5" offset="0%"></stop>
            <stop stop-color="#1072A5" offset="100%"></stop>
        </linearGradient>
        <linearGradient x1="-2.66911653%" y1="48.011431%" x2="100.000886%" y2="48.011431%" id="linearGradient-2">
            <stop stop-color="#50B1A0" offset="0%"></stop>
            <stop stop-color="#DDE295" offset="100%"></stop>
        </linearGradient>
        <linearGradient x1="49.0004031%" y1="-0.00423431555%" x2="49.0004031%" y2="103.109509%" id="linearGradient-3">
            <stop stop-color="#803B89" offset="0%"></stop>
            <stop stop-color="#D83B2F" offset="100%"></stop>
        </linearGradient>
        <linearGradient x1="52.9327748%" y1="-0.00898910184%" x2="52.9327748%" y2="100.010445%" id="linearGradient-4">
            <stop stop-color="#F2C66B" offset="0%"></stop>
            <stop stop-color="#E48370" offset="100%"></stop>
        </linearGradient>
    </defs>
    <g id="desktop" stroke="none" stroke-width="1" fill="none" fill-rule="evenodd">
        <g id="download_igoogle_play">
            <path d="M4.4062,0.7314 C2.3862,0.7314 0.7442,2.3414 0.7442,4.3214 L0.7442,25.6814 C0.7442,27.6594 2.3862,29.2684 4.4062,29.2684 L87.5972,29.2684 C89.6152,29.2684 91.2562,27.6594 91.2562,25.6814 L91.2562,4.3214 C91.2562,2.3414 89.6152,0.7314 87.5972,0.7314 L4.4062,0.7314 Z M87.5972,30.0004 L4.4062,30.0004 C1.9762,30.0004 0.0002,28.0634 0.0002,25.6814 L0.0002,4.3214 C0.0002,1.9384 1.9762,0.0004 4.4062,0.0004 L87.5972,0.0004 C90.0242,0.0004 92.0002,1.9384 92.0002,4.3214 L92.0002,25.6814 C92.0002,28.0634 90.0242,30.0004 87.5972,30.0004 Z" id="Fill-1" fill="#FFFFFF"></path>
            <path d="M7.977,6.775 L7.977,15.835 L7.977,25.08 C7.977,25.298 8.074,25.448 8.225,25.499 L17.972,15.835 L8.306,6.251 C8.111,6.306 7.977,6.482 7.977,6.775" id="Fill-4" fill="url(#linearGradient-1)"></path>
            <path d="M8.306,6.251 L17.972,15.835 L20.655,13.173 L16.618,10.847 C16.618,10.847 9.272,6.6 8.838,6.351 C8.702,6.271 8.566,6.233 8.444,6.233 C8.395,6.233 8.349,6.239 8.306,6.251" id="Fill-7" fill="url(#linearGradient-2)"></path>
            <path d="M8.225,25.499 C8.343,25.538 8.494,25.518 8.658,25.423 C9.026,25.21 16.289,21.017 16.608,20.833 L16.612,20.83 C16.613,20.829 16.614,20.829 16.614,20.829 L16.618,20.826 L20.655,18.495 L17.972,15.835 L8.225,25.499 Z" id="Fill-10" fill="url(#linearGradient-3)"></path>
            <path d="M17.972,15.835 L20.655,18.495 C20.655,18.495 20.656,18.495 20.658,18.493 L20.666,18.489 C20.667,18.488 20.668,18.488 20.668,18.488 L21.754,17.861 C21.761,17.857 21.769,17.852 21.777,17.848 L21.784,17.844 C22.825,17.243 24.25,16.421 24.531,16.257 C24.988,15.994 24.944,15.634 24.559,15.429 C24.176,15.219 20.655,13.173 20.655,13.173 L17.972,15.835 Z" id="Fill-13" fill="url(#linearGradient-4)"></path>
            <path d="M70.7695,14.4756 C70.1805,14.4756 69.7565,14.6386 69.4935,14.9666 C69.2285,15.2896 69.0955,15.8116 69.0885,16.5236 L69.0885,16.7166 C69.0885,17.5276 69.2235,18.1066 69.4935,18.4546 C69.7625,18.8046 70.1975,18.9796 70.7925,18.9796 C71.2905,18.9796 71.6805,18.7756 71.9615,18.3726 C72.2455,17.9716 72.3865,17.4136 72.3865,16.7056 C72.3865,15.9886 72.2455,15.4356 71.9615,15.0516 C71.6805,14.6676 71.2835,14.4756 70.7695,14.4756 M70.8975,19.7086 C70.5215,19.7086 70.1775,19.6416 69.8685,19.4996 C69.5575,19.3646 69.2995,19.1496 69.0885,18.8636 L69.0245,18.8636 C69.0675,19.1996 69.0885,19.5196 69.0885,19.8206 L69.0885,22.1906 L68.2145,22.1906 L68.2145,13.8386 L68.9255,13.8386 L69.0435,14.6266 L69.0885,14.6266 C69.3135,14.3136 69.5735,14.0846 69.8715,13.9476 C70.1695,13.8046 70.5115,13.7346 70.8975,13.7346 C71.6615,13.7346 72.2535,13.9966 72.6665,14.5196 C73.0835,15.0406 73.2905,15.7746 73.2905,16.7166 C73.2905,17.6636 73.0815,18.3996 72.6595,18.9236 C72.2355,19.4486 71.6485,19.7086 70.8975,19.7086" id="Fill-16" fill="#FFFFFF"></path>
            <polygon id="Fill-18" fill="#FFFFFF" points="74.439 19.605 75.311 19.605 75.311 11.419 74.439 11.419"></polygon>
            <path d="M78.3584,18.9902 C78.9034,18.9902 79.3294,18.8412 79.6404,18.5442 C79.9484,18.2442 80.1034,17.8282 80.1034,17.2902 L80.1034,16.7682 L79.2314,16.8062 C78.5374,16.8322 78.0354,16.9382 77.7304,17.1292 C77.4234,17.3202 77.2704,17.6182 77.2704,18.0202 C77.2704,18.3352 77.3664,18.5782 77.5584,18.7412 C77.7484,18.9052 78.0144,18.9902 78.3584,18.9902 Z M80.3314,19.6052 L80.1574,18.7832 L80.1154,18.7832 C79.8264,19.1432 79.5424,19.3882 79.2554,19.5162 C78.9714,19.6452 78.6124,19.7092 78.1834,19.7092 C77.6144,19.7092 77.1654,19.5622 76.8404,19.2672 C76.5164,18.9732 76.3574,18.5532 76.3574,18.0112 C76.3574,16.8442 77.2864,16.2342 79.1484,16.1802 L80.1254,16.1492 L80.1254,15.7902 C80.1254,15.3392 80.0284,15.0072 79.8344,14.7912 C79.6404,14.5732 79.3294,14.4652 78.8994,14.4652 C78.4204,14.4652 77.8764,14.6152 77.2704,14.9052 L77.0014,14.2392 C77.2864,14.0852 77.5954,13.9662 77.9354,13.8762 C78.2734,13.7902 78.6124,13.7462 78.9524,13.7462 C79.6404,13.7462 80.1504,13.8972 80.4814,14.2022 C80.8124,14.5072 80.9784,14.9982 80.9784,15.6702 L80.9784,19.6052 L80.3314,19.6052 Z" id="Fill-20" fill="#FFFFFF"></path>
            <path d="M81.4854,13.8389 L82.4204,13.8389 L83.6804,17.1269 C83.9584,17.8769 84.1314,18.4189 84.1974,18.7529 L84.2394,18.7529 C84.2854,18.5759 84.3814,18.2669 84.5264,17.8339 C84.6734,17.4019 85.1494,16.0709 85.9554,13.8389 L86.8914,13.8389 L84.4124,20.4049 C84.1694,21.0539 83.8814,21.5119 83.5544,21.7819 C83.2264,22.0559 82.8234,22.1909 82.3474,22.1909 C82.0804,22.1909 81.8164,22.1619 81.5564,22.1029 L81.5564,21.4029 C81.7514,21.4429 81.9674,21.4639 82.2044,21.4639 C82.8024,21.4639 83.2304,21.1299 83.4874,20.4559 L83.8074,19.6379 L81.4854,13.8389 Z" id="Fill-21" fill="#FFFFFF"></path>
            <path d="M54.2178,17.4375 C54.4958,17.1585 54.5218,16.7755 54.5218,16.5565 C54.5218,15.6895 53.9998,14.3375 53.0008,14.3375 C52.6878,14.3375 52.3498,14.4955 52.1568,14.7355 C51.9518,14.9925 51.8938,15.3155 51.8938,15.6285 C51.8938,16.4375 52.3638,17.7735 53.3978,17.7735 C53.7008,17.7735 54.0258,17.6315 54.2178,17.4375 Z M53.8688,19.7305 C53.7738,19.7155 53.7118,19.7155 53.5938,19.7155 C53.4848,19.7155 52.8308,19.7415 52.3258,19.9105 C52.0628,20.0045 51.2888,20.2935 51.2888,21.1505 C51.2888,22.0075 52.1208,22.6245 53.4128,22.6245 C54.5698,22.6245 55.1828,22.0675 55.1828,21.3205 C55.1828,20.7035 54.7848,20.3795 53.8688,19.7305 Z M54.7268,14.3745 C55.0018,14.6025 55.5798,15.0865 55.5798,16.0025 C55.5798,16.8935 55.0758,17.3165 54.5698,17.7135 C54.4118,17.8725 54.2318,18.0415 54.2318,18.3065 C54.2318,18.5715 54.4118,18.7165 54.5438,18.8255 L54.9778,19.1625 C55.5088,19.6075 55.9918,20.0165 55.9918,20.8495 C55.9918,21.9835 54.8948,23.1265 52.8208,23.1265 C51.0708,23.1265 50.2278,22.2955 50.2278,21.4055 C50.2278,20.9695 50.4458,20.3545 51.1558,19.9335 C51.9048,19.4755 52.9158,19.4155 53.4618,19.3765 C53.2888,19.1625 53.0968,18.9325 53.0968,18.5605 C53.0968,18.3545 53.1588,18.2335 53.2188,18.0865 C53.0858,18.1015 52.9518,18.1115 52.8308,18.1115 C51.5528,18.1115 50.8288,17.1585 50.8288,16.2195 C50.8288,15.6665 51.0858,15.0505 51.6028,14.6025 C52.2898,14.0385 53.1118,13.9395 53.7608,13.9395 L56.2448,13.9395 L55.4718,14.3745 L54.7268,14.3745 Z" id="Fill-22" fill="#FFFFFF"></path>
            <path d="M48.6387,18.5605 C48.9287,18.1745 48.9997,17.6935 48.9997,17.2245 C48.9997,16.1645 48.4957,14.1435 47.0027,14.1435 C46.6077,14.1435 46.2077,14.2985 45.9177,14.5535 C45.4497,14.9725 45.3667,15.5025 45.3667,16.0225 C45.3667,17.2125 45.9547,19.1755 47.4117,19.1755 C47.8797,19.1755 48.3637,18.9455 48.6387,18.5605 M47.1337,19.5365 C45.2217,19.5365 44.1997,18.0425 44.1997,16.6945 C44.1997,15.1195 45.4877,13.7695 47.3167,13.7695 C49.0847,13.7695 50.1927,15.1535 50.1927,16.6105 C50.1927,18.0305 49.0977,19.5365 47.1337,19.5365" id="Fill-23" fill="#FFFFFF"></path>
            <path d="M42.1172,18.5605 C42.4052,18.1745 42.4772,17.6935 42.4772,17.2245 C42.4772,16.1645 41.9712,14.1435 40.4782,14.1435 C40.0822,14.1435 39.6832,14.2985 39.3942,14.5535 C38.9252,14.9725 38.8432,15.5025 38.8432,16.0225 C38.8432,17.2125 39.4322,19.1755 40.8892,19.1755 C41.3582,19.1755 41.8392,18.9455 42.1172,18.5605 M40.6122,19.5365 C38.6962,19.5365 37.6742,18.0425 37.6742,16.6945 C37.6742,15.1195 38.9612,13.7695 40.7922,13.7695 C42.5602,13.7695 43.6692,15.1535 43.6692,16.6105 C43.6692,18.0305 42.5752,19.5365 40.6122,19.5365" id="Fill-24" fill="#FFFFFF"></path>
            <path d="M36.7529,19.3467 L35.0229,19.7457 C34.3199,19.8557 33.6929,19.9517 33.0269,19.9517 C29.6879,19.9517 28.4169,17.4957 28.4169,15.5717 C28.4169,13.2257 30.2199,11.0447 33.3049,11.0447 C33.9589,11.0447 34.5879,11.1427 35.1569,11.2987 C36.0649,11.5557 36.4869,11.8687 36.7529,12.0517 L35.7489,13.0067 L35.3249,13.1027 L35.6289,12.6177 C35.2179,12.2197 34.4659,11.4817 33.0389,11.4817 C31.1269,11.4817 29.6879,12.9347 29.6879,15.0507 C29.6879,17.3257 31.3329,19.4697 33.9719,19.4697 C34.7439,19.4697 35.1449,19.3107 35.5069,19.1647 L35.5069,17.2167 L33.6799,17.3147 L34.6459,16.7917 L37.2149,16.7917 L36.8989,17.0947 C36.8149,17.1687 36.8009,17.1937 36.7769,17.2897 C36.7649,17.3977 36.7529,17.7467 36.7529,17.8707 L36.7529,19.3467 Z" id="Fill-25" fill="#FFFFFF"></path>
            <path d="M58.5498,19 C58.1508,18.963 58.0678,18.891 58.0678,18.417 L58.0678,18.285 L58.0678,11.568 C58.0708,11.541 58.0708,11.515 58.0738,11.489 C58.1228,11.067 58.2418,10.996 58.6198,10.777 L56.8888,10.777 L55.9808,11.212 L56.9038,11.212 L56.9038,11.218 L56.9038,11.213 L56.9038,18.285 L56.9038,18.686 C56.9038,18.928 56.8578,18.963 56.5788,19.324 L58.7198,19.324 L59.1668,19.06 C58.9618,19.034 58.7578,19.024 58.5498,19" id="Fill-26" fill="#FFFFFF"></path>
            <path d="M62.3457,15.5273 C62.5737,15.4433 62.6937,15.3713 62.6937,15.2043 C62.6937,14.7223 62.1527,14.1713 61.5057,14.1713 C61.0227,14.1713 60.1207,14.5443 60.1207,15.8403 C60.1207,16.0473 60.1457,16.2613 60.1577,16.4773 L62.3457,15.5273 Z M63.4737,19.1113 C63.3417,19.1833 63.2087,19.2673 63.0777,19.3263 C62.6797,19.5073 62.2727,19.5543 61.9137,19.5543 C61.5277,19.5543 60.9267,19.5303 60.3137,19.0863 C59.4597,18.4863 59.0887,17.4493 59.0887,16.5503 C59.0887,14.6893 60.6017,13.7733 61.8377,13.7733 C62.2727,13.7733 62.7167,13.8813 63.0777,14.1123 C63.6797,14.5063 63.8347,15.0243 63.9187,15.2993 L61.0947,16.4443 L60.1707,16.5143 C60.4687,18.0423 61.5057,18.9273 62.6467,18.9273 C63.2587,18.9273 63.7037,18.7143 64.1127,18.5073 L63.4737,19.1113 Z" id="Fill-27" fill="#FFFFFF"></path>
            <polygon id="Fill-28" fill="#FFFFFF" points="64.6338 13.8545 64.6338 14.6485 64.5358 14.6485 64.5358 13.8545 64.2768 13.8545 64.2768 13.7735 64.8998 13.7735 64.8998 13.8545"></polygon>
            <polygon id="Fill-29" fill="#FFFFFF" points="65.7168 14.6484 65.7168 13.8474 65.7108 13.8474 65.4678 14.6484 65.3918 14.6484 65.1438 13.8474 65.1428 13.8474 65.1428 14.6484 65.0548 14.6484 65.0548 13.7734 65.2038 13.7734 65.4258 14.4804 65.4308 14.4804 65.6528 13.7734 65.8018 13.7734 65.8018 14.6484"></polygon>
            <path d="M29.9512,7.6289 C29.7382,6.9829 29.6302,6.6309 29.6302,6.5789 L29.6002,6.5789 C29.6002,6.6269 29.4882,6.9799 29.2682,7.6289 L29.9512,7.6289 Z M30.8192,8.6899 L30.2192,8.6899 C30.2192,8.6059 30.1602,8.3719 30.0472,7.9869 L29.1802,7.9869 C29.0612,8.3649 29.0042,8.5999 29.0042,8.6899 L28.4372,8.6899 C28.4372,8.6409 28.5842,8.2379 28.8772,7.4849 C29.1682,6.7329 29.3142,6.3179 29.3142,6.2419 L30.0242,6.2419 C30.0242,6.3129 30.1572,6.7229 30.4222,7.4679 C30.6872,8.2129 30.8192,8.6229 30.8192,8.6899 Z" id="Fill-30" fill="#FFFFFF"></path>
            <path d="M33.2422,8.6895 L32.7782,8.6895 C32.7782,8.6365 32.6072,8.3655 32.2622,7.8765 C31.9022,7.3585 31.6952,7.0035 31.6462,6.8125 L31.6152,6.8125 C31.6472,7.0865 31.6622,7.3355 31.6622,7.5585 C31.6622,7.8675 31.6712,8.2435 31.6892,8.6895 L31.2252,8.6895 C31.2442,8.3005 31.2552,7.8765 31.2552,7.4105 C31.2552,6.9515 31.2442,6.5635 31.2252,6.2425 L31.7842,6.2425 C31.7842,6.3085 31.9382,6.5725 32.2492,7.0385 C32.5782,7.5315 32.7672,7.8655 32.8162,8.0405 L32.8462,8.0405 C32.8152,7.7605 32.8002,7.5075 32.8002,7.2885 C32.8002,6.9475 32.7912,6.5995 32.7732,6.2425 L33.2422,6.2425 C33.2232,6.5535 33.2182,6.9435 33.2182,7.4105 C33.2182,7.8805 33.2232,8.3075 33.2422,8.6895" id="Fill-31" fill="#FFFFFF"></path>
            <path d="M35.4531,7.4629 C35.4531,7.2209 35.3841,7.0199 35.2411,6.8539 C35.1041,6.6899 34.8901,6.6069 34.5981,6.6069 C34.5451,6.6069 34.4741,6.6129 34.3801,6.6249 C34.3901,6.8759 34.3961,7.1369 34.3961,7.4099 C34.3961,7.7079 34.4031,8.0059 34.4161,8.3009 C34.4971,8.3179 34.5801,8.3239 34.6591,8.3239 C34.9291,8.3239 35.1301,8.2389 35.2581,8.0729 C35.3891,7.9069 35.4531,7.7039 35.4531,7.4629 M35.9661,7.3819 C35.9661,7.7369 35.8501,8.0489 35.6251,8.3139 C35.3951,8.5779 35.0771,8.7109 34.6671,8.7109 C34.4811,8.7109 34.2251,8.7039 33.8981,8.6899 C33.9171,8.3109 33.9231,7.8859 33.9231,7.4099 C33.9231,6.9549 33.9171,6.5649 33.8981,6.2419 L34.2261,6.2419 C34.2821,6.2419 34.3621,6.2419 34.4681,6.2379 C34.5751,6.2339 34.6451,6.2329 34.6771,6.2329 C35.1301,6.2329 35.4571,6.3429 35.6621,6.5689 C35.8641,6.7959 35.9661,7.0659 35.9661,7.3819" id="Fill-32" fill="#FFFFFF"></path>
            <path d="M37.7734,6.9609 C37.7734,6.7089 37.6134,6.5849 37.2914,6.5849 C37.1754,6.5849 37.0704,6.5959 36.9784,6.6129 C36.9944,6.8099 37.0004,7.0599 37.0004,7.3699 C37.0704,7.3739 37.1294,7.3769 37.1764,7.3769 C37.5744,7.3769 37.7734,7.2369 37.7734,6.9609 M38.4764,8.6899 L37.9224,8.6899 C37.7764,8.2449 37.6664,7.9719 37.5864,7.8679 C37.5104,7.7639 37.3834,7.7109 37.2114,7.7109 C37.1374,7.7109 37.0704,7.7109 37.0024,7.7139 C37.0024,8.0359 37.0084,8.3589 37.0204,8.6899 L36.4984,8.6899 C36.5144,8.3109 36.5214,7.8859 36.5214,7.4099 C36.5214,6.9549 36.5144,6.5649 36.4984,6.2419 L36.8224,6.2419 C36.8584,6.2419 36.9394,6.2419 37.0584,6.2379 C37.1774,6.2339 37.2874,6.2319 37.3894,6.2319 C37.9654,6.2319 38.2524,6.4289 38.2524,6.8209 C38.2524,7.1339 38.0894,7.3509 37.7594,7.4729 L37.7594,7.5019 C37.8844,7.5379 37.9994,7.6349 38.0934,7.7979 C38.1894,7.9609 38.3154,8.2559 38.4764,8.6899" id="Fill-33" fill="#FFFFFF"></path>
            <path d="M40.6533,7.4736 C40.6533,7.2136 40.5863,7.0016 40.4533,6.8386 C40.3163,6.6746 40.1543,6.5936 39.9563,6.5936 C39.7723,6.5936 39.6193,6.6766 39.4913,6.8386 C39.3603,7.0036 39.2993,7.2106 39.2993,7.4626 C39.2993,7.7246 39.3663,7.9346 39.5003,8.0966 C39.6353,8.2606 39.8013,8.3456 39.9953,8.3456 C40.1773,8.3456 40.3353,8.2596 40.4613,8.0956 C40.5883,7.9316 40.6533,7.7246 40.6533,7.4736 M41.1713,7.4216 C41.1713,7.8066 41.0523,8.1246 40.8203,8.3776 C40.5843,8.6306 40.2933,8.7576 39.9453,8.7576 C39.6143,8.7576 39.3393,8.6406 39.1133,8.4096 C38.8933,8.1776 38.7783,7.8806 38.7783,7.5226 C38.7783,7.1386 38.8963,6.8186 39.1323,6.5666 C39.3673,6.3126 39.6593,6.1866 40.0073,6.1866 C40.3373,6.1866 40.6143,6.3026 40.8393,6.5356 C41.0613,6.7636 41.1713,7.0626 41.1713,7.4216" id="Fill-34" fill="#FFFFFF"></path>
            <path d="M42.2354,8.6895 L41.7034,8.6895 C41.7184,8.3005 41.7284,7.8765 41.7284,7.4105 C41.7284,6.9515 41.7184,6.5635 41.7034,6.2425 L42.2354,6.2425 C42.2174,6.5585 42.2104,6.9475 42.2104,7.4105 C42.2104,7.8805 42.2174,8.3085 42.2354,8.6895" id="Fill-35" fill="#FFFFFF"></path>
            <path d="M44.4443,7.4629 C44.4443,7.2209 44.3753,7.0199 44.2333,6.8539 C44.0923,6.6899 43.8803,6.6069 43.5903,6.6069 C43.5373,6.6069 43.4663,6.6129 43.3713,6.6249 C43.3823,6.8759 43.3873,7.1369 43.3873,7.4099 C43.3873,7.7079 43.3943,8.0059 43.4083,8.3009 C43.4883,8.3179 43.5703,8.3239 43.6523,8.3239 C43.9223,8.3239 44.1203,8.2389 44.2513,8.0729 C44.3823,7.9069 44.4443,7.7039 44.4443,7.4629 M44.9593,7.3819 C44.9593,7.7369 44.8443,8.0489 44.6173,8.3139 C44.3863,8.5779 44.0673,8.7109 43.6583,8.7109 C43.4733,8.7109 43.2163,8.7039 42.8903,8.6899 C42.9063,8.3109 42.9153,7.8859 42.9153,7.4099 C42.9153,6.9549 42.9063,6.5649 42.8903,6.2419 L43.2213,6.2419 C43.2723,6.2419 43.3543,6.2419 43.4593,6.2379 C43.5663,6.2339 43.6363,6.2329 43.6693,6.2329 C44.1203,6.2329 44.4483,6.3429 44.6543,6.5689 C44.8563,6.7959 44.9593,7.0659 44.9593,7.3819" id="Fill-36" fill="#FFFFFF"></path>
            <path d="M47.7041,7.6289 C47.4901,6.9829 47.3821,6.6309 47.3821,6.5789 L47.3521,6.5789 C47.3521,6.6269 47.2411,6.9799 47.0201,7.6289 L47.7041,7.6289 Z M48.5701,8.6899 L47.9701,8.6899 C47.9701,8.6059 47.9131,8.3719 47.7991,7.9869 L46.9321,7.9869 C46.8131,8.3649 46.7551,8.5999 46.7551,8.6899 L46.1891,8.6899 C46.1891,8.6409 46.3361,8.2379 46.6291,7.4849 C46.9201,6.7329 47.0671,6.3179 47.0671,6.2419 L47.7771,6.2419 C47.7771,6.3129 47.9091,6.7229 48.1761,7.4679 C48.4391,8.2129 48.5701,8.6229 48.5701,8.6899 Z" id="Fill-37" fill="#FFFFFF"></path>
            <path d="M50.2764,6.9873 C50.2764,6.7163 50.1004,6.5843 49.7464,6.5843 C49.6554,6.5843 49.5614,6.5933 49.4614,6.6133 C49.4764,6.8483 49.4814,7.1193 49.4814,7.4163 C49.5144,7.4203 49.5504,7.4223 49.5914,7.4223 C50.0514,7.4223 50.2764,7.2773 50.2764,6.9873 M50.7634,6.8823 C50.7634,7.1823 50.6524,7.4043 50.4294,7.5483 C50.2064,7.6903 49.9324,7.7603 49.6124,7.7603 C49.5534,7.7603 49.5084,7.7603 49.4854,7.7583 C49.4854,7.9933 49.4914,8.3043 49.5054,8.6893 L48.9774,8.6893 C48.9944,8.3283 49.0034,7.8993 49.0034,7.4103 C49.0034,6.9593 48.9944,6.5693 48.9774,6.2423 L49.3054,6.2423 C49.3514,6.2423 49.4424,6.2423 49.5724,6.2383 C49.7044,6.2343 49.8184,6.2323 49.9124,6.2323 C50.1524,6.2323 50.3544,6.2853 50.5154,6.3923 C50.6804,6.5003 50.7634,6.6633 50.7634,6.8823" id="Fill-38" fill="#FFFFFF"></path>
            <path d="M52.5342,6.9873 C52.5342,6.7163 52.3562,6.5843 51.9982,6.5843 C51.9102,6.5843 51.8152,6.5933 51.7172,6.6133 C51.7302,6.8483 51.7382,7.1193 51.7382,7.4163 C51.7692,7.4203 51.8052,7.4223 51.8472,7.4223 C52.3042,7.4223 52.5342,7.2773 52.5342,6.9873 M53.0162,6.8823 C53.0162,7.1823 52.9052,7.4043 52.6832,7.5483 C52.4612,7.6903 52.1862,7.7603 51.8652,7.7603 C51.8072,7.7603 51.7652,7.7603 51.7392,7.7583 C51.7392,7.9933 51.7452,8.3043 51.7602,8.6893 L51.2312,8.6893 C51.2472,8.3283 51.2562,7.8993 51.2562,7.4103 C51.2562,6.9593 51.2472,6.5693 51.2312,6.2423 L51.5592,6.2423 C51.6052,6.2423 51.6952,6.2423 51.8262,6.2383 C51.9582,6.2343 52.0722,6.2323 52.1692,6.2323 C52.4042,6.2323 52.6052,6.2853 52.7722,6.3923 C52.9342,6.5003 53.0162,6.6633 53.0162,6.8823" id="Fill-39" fill="#FFFFFF"></path>
            <path d="M56.1826,7.4736 C56.1826,7.2136 56.1176,7.0016 55.9826,6.8386 C55.8486,6.6746 55.6836,6.5936 55.4856,6.5936 C55.3046,6.5936 55.1476,6.6766 55.0216,6.8386 C54.8916,7.0036 54.8276,7.2106 54.8276,7.4626 C54.8276,7.7246 54.8956,7.9346 55.0286,8.0966 C55.1646,8.2606 55.3296,8.3456 55.5266,8.3456 C55.7086,8.3456 55.8646,8.2596 55.9926,8.0956 C56.1206,7.9316 56.1826,7.7246 56.1826,7.4736 M56.7026,7.4216 C56.7026,7.8066 56.5846,8.1246 56.3486,8.3776 C56.1136,8.6306 55.8216,8.7576 55.4736,8.7576 C55.1436,8.7576 54.8686,8.6406 54.6446,8.4096 C54.4206,8.1776 54.3106,7.8806 54.3106,7.5226 C54.3106,7.1386 54.4266,6.8186 54.6626,6.5666 C54.8986,6.3126 55.1916,6.1866 55.5376,6.1866 C55.8666,6.1866 56.1446,6.3026 56.3696,6.5356 C56.5926,6.7636 56.7026,7.0626 56.7026,7.4216" id="Fill-40" fill="#FFFFFF"></path>
            <path d="M59.249,8.6895 L58.785,8.6895 C58.785,8.6365 58.612,8.3655 58.269,7.8765 C57.907,7.3585 57.703,7.0035 57.651,6.8125 L57.621,6.8125 C57.653,7.0865 57.669,7.3355 57.669,7.5585 C57.669,7.8675 57.678,8.2435 57.694,8.6895 L57.232,8.6895 C57.251,8.3005 57.262,7.8765 57.262,7.4105 C57.262,6.9515 57.251,6.5635 57.232,6.2425 L57.791,6.2425 C57.791,6.3085 57.945,6.5725 58.255,7.0385 C58.585,7.5315 58.772,7.8655 58.823,8.0405 L58.852,8.0405 C58.82,7.7605 58.807,7.5075 58.807,7.2885 C58.807,6.9475 58.799,6.5995 58.778,6.2425 L59.249,6.2425 C59.231,6.5535 59.224,6.9435 59.224,7.4105 C59.224,7.8805 59.231,8.3075 59.249,8.6895" id="Fill-41" fill="#FFFFFF"></path>
        </g>
    </g>
</svg>