<?xml version="1.0" encoding="UTF-8"?>
<svg width="92px" height="30px" viewBox="0 0 92 30" version="1.1" xmlns="http://www.w3.org/2000/svg" xmlns:xlink="http://www.w3.org/1999/xlink">
    <!-- Generator: Sketch 50.2 (55047) - http://www.bohemiancoding.com/sketch -->
    <title>download_App_store</title>
    <desc>Created with Sketch.</desc>
    <defs></defs>
    <g id="desktop" stroke="none" stroke-width="1" fill="none" fill-rule="evenodd">
        <path d="M68.282,21.291 C67.936,21.878 67.455,22.167 66.845,22.167 C66.219,22.167 65.736,21.882 65.391,21.311 C65.099,20.837 64.958,20.27 64.958,19.606 C64.958,18.926 65.099,18.347 65.391,17.879 C65.726,17.304 66.216,17.018 66.857,17.018 C67.482,17.018 67.961,17.304 68.303,17.879 C68.586,18.347 68.729,18.919 68.729,19.579 C68.729,20.237 68.581,20.813 68.282,21.291 Z M66.915,15.845 C65.817,15.845 64.945,16.196 64.298,16.913 C63.649,17.624 63.326,18.541 63.326,19.659 C63.326,20.727 63.638,21.616 64.266,22.317 C64.894,23.02 65.741,23.373 66.803,23.373 C67.898,23.373 68.779,23.005 69.444,22.273 C70.078,21.56 70.393,20.651 70.393,19.541 C70.393,18.464 70.086,17.579 69.474,16.9 C68.829,16.195 67.98,15.845 66.915,15.845 Z M31.738,9.085 C31.638,9.421 31.554,9.71 31.486,10.017 L31.463,10.017 C31.392,9.71 31.318,9.411 31.21,9.085 L30.607,7.199 L29.592,7.199 L30.973,10.917 L31.898,10.917 L33.316,7.199 L32.334,7.199 L31.738,9.085 Z M10.861,21.168 L19.201,21.168 L19.201,8.833 L10.861,8.833 L10.861,21.168 Z M15.03,23.599 C14.562,23.599 14.181,23.218 14.181,22.751 C14.181,22.282 14.562,21.898 15.03,21.898 C15.499,21.898 15.88,22.282 15.88,22.751 C15.88,23.218 15.499,23.599 15.03,23.599 Z M14.213,7.189 L15.847,7.189 C15.953,7.189 16.043,7.274 16.043,7.382 C16.043,7.487 15.953,7.575 15.847,7.575 L14.213,7.575 C14.111,7.575 14.019,7.487 14.019,7.382 C14.019,7.274 14.111,7.189 14.213,7.189 Z M18.557,5.522 L11.507,5.522 C10.6,5.522 9.861,6.26 9.861,7.166 L9.861,22.833 C9.861,23.739 10.6,24.475 11.507,24.475 L18.557,24.475 C19.462,24.475 20.201,23.739 20.201,22.833 L20.201,7.166 C20.201,6.26 19.462,5.522 18.557,5.522 Z M34.762,9.794 C34.762,9.231 35.394,9.093 36.058,9.1 L36.058,9.612 C36.058,9.682 36.058,9.75 36.034,9.82 C35.943,10.087 35.678,10.329 35.296,10.329 C34.997,10.329 34.762,10.16 34.762,9.794 Z M36.097,10.503 L36.12,10.503 L36.189,10.917 L37.036,10.917 C36.992,10.688 36.974,10.36 36.974,10.023 L36.974,8.687 C36.974,7.87 36.632,7.115 35.44,7.115 C34.853,7.115 34.372,7.276 34.098,7.443 L34.281,8.055 C34.534,7.895 34.914,7.78 35.28,7.78 C35.935,7.78 36.034,8.185 36.034,8.43 L36.034,8.49 C34.662,8.481 33.83,8.961 33.83,9.895 C33.83,10.46 34.25,11.003 34.997,11.003 C35.486,11.003 35.877,10.794 36.097,10.503 Z M73.66,16.23 C73.292,16.517 73.025,16.897 72.858,17.371 L72.814,17.371 L72.756,15.989 L71.357,15.989 C71.386,16.677 71.403,17.435 71.403,18.261 L71.403,23.21 L73.006,23.21 L73.006,19.423 C73.006,18.842 73.139,18.374 73.406,17.998 C73.715,17.573 74.148,17.36 74.714,17.36 C74.888,17.36 75.06,17.371 75.219,17.399 L75.219,15.873 C75.1,15.854 74.969,15.847 74.82,15.847 C74.404,15.847 74.016,15.971 73.66,16.23 Z M27.627,19.037 L28.458,16.421 C28.679,15.589 28.834,14.96 28.935,14.535 L28.964,14.535 C29.211,15.525 29.381,16.152 29.47,16.421 L30.314,19.037 L27.627,19.037 Z M28.013,13.2 L24.793,23.21 L26.453,23.21 L27.346,20.27 L30.598,20.27 L31.533,23.21 L33.242,23.21 L30.006,13.2 L28.013,13.2 Z M71.627,9.65 C71.627,10.141 71.72,10.482 71.928,10.696 C72.101,10.889 72.385,11.003 72.736,11.003 C73.025,11.003 73.275,10.954 73.414,10.903 L73.4,10.19 C73.292,10.223 73.201,10.228 73.032,10.228 C72.674,10.228 72.552,10.003 72.552,9.542 L72.552,7.9 L73.444,7.9 L73.444,7.199 L72.552,7.199 L72.552,6.246 L71.627,6.503 L71.627,7.199 L71.101,7.199 L71.101,7.9 L71.627,7.9 L71.627,9.65 Z M48.925,10.261 C48.521,10.261 48.194,9.987 48.095,9.605 C48.078,9.536 48.07,9.458 48.07,9.384 L48.07,8.778 C48.07,8.687 48.086,8.605 48.1,8.536 C48.2,8.125 48.553,7.849 48.934,7.849 C49.557,7.849 49.872,8.384 49.872,9.041 C49.872,9.794 49.514,10.261 48.925,10.261 Z M49.277,7.115 C48.72,7.115 48.314,7.353 48.086,7.711 L48.07,7.711 L48.07,5.499 L47.132,5.499 L47.132,9.87 C47.132,10.253 47.116,10.668 47.102,10.917 L47.904,10.917 L47.948,10.36 L47.962,10.36 C48.23,10.819 48.658,11.003 49.14,11.003 C49.98,11.003 50.826,10.339 50.826,9.001 C50.834,7.87 50.184,7.115 49.277,7.115 Z M55.587,17.448 C54.886,17.169 54.402,16.913 54.133,16.679 C53.828,16.416 53.675,16.089 53.675,15.693 C53.675,15.339 53.807,15.038 54.076,14.786 C54.393,14.517 54.838,14.372 55.402,14.372 C56.116,14.372 56.758,14.528 57.32,14.832 L57.727,13.526 C57.123,13.209 56.364,13.052 55.455,13.052 C54.433,13.052 53.615,13.313 52.995,13.837 C52.375,14.362 52.068,15.038 52.068,15.86 C52.068,17.116 52.947,18.072 54.696,18.723 C55.342,18.964 55.797,19.219 56.078,19.494 C56.353,19.773 56.492,20.116 56.492,20.515 C56.492,20.978 56.324,21.341 55.99,21.611 C55.654,21.882 55.183,22.02 54.575,22.02 C53.736,22.02 52.966,21.809 52.264,21.395 L51.891,22.731 C52.542,23.144 53.404,23.355 54.484,23.355 C55.647,23.355 56.556,23.065 57.211,22.481 C57.803,21.944 58.097,21.254 58.097,20.399 C58.097,19.71 57.896,19.13 57.491,18.665 C57.082,18.2 56.452,17.79 55.587,17.448 Z M61.095,14.198 L59.523,14.67 L59.523,15.989 L58.469,15.989 L58.469,17.192 L59.523,17.192 L59.523,20.831 C59.523,21.742 59.7,22.394 60.06,22.779 C60.414,23.166 60.912,23.356 61.542,23.356 C62.058,23.356 62.474,23.296 62.791,23.176 L62.746,21.963 C62.555,22.013 62.32,22.032 62.034,22.032 C61.41,22.032 61.095,21.591 61.095,20.7 L61.095,17.192 L62.867,17.192 L62.867,15.989 L61.095,15.989 L61.095,14.198 Z M46.902,21.412 C46.566,21.878 46.095,22.108 45.49,22.108 C44.976,22.108 44.558,21.928 44.236,21.568 C43.912,21.208 43.755,20.765 43.755,20.237 L43.755,19.037 C43.755,18.909 43.778,18.746 43.827,18.545 C43.928,18.12 44.138,17.775 44.461,17.508 C44.783,17.247 45.139,17.116 45.535,17.116 C46.119,17.116 46.584,17.36 46.933,17.835 C47.249,18.288 47.409,18.868 47.409,19.569 C47.409,20.333 47.24,20.946 46.902,21.412 Z M46.055,15.845 C44.967,15.845 44.157,16.273 43.617,17.134 L43.59,17.134 L43.499,15.989 L42.09,15.989 C42.131,16.8 42.151,17.593 42.151,18.362 L42.151,26.136 L43.755,26.136 L43.755,22.347 C44.172,23.029 44.856,23.373 45.814,23.373 C46.701,23.373 47.44,23.054 48.037,22.425 C48.707,21.708 49.041,20.743 49.041,19.511 C49.041,18.413 48.757,17.526 48.185,16.854 C47.617,16.179 46.906,15.845 46.055,15.845 Z M40.84,10.917 L41.778,10.917 L41.778,5.499 L40.84,5.499 L40.84,10.917 Z M38.972,21.412 C38.635,21.878 38.162,22.108 37.56,22.108 C37.048,22.108 36.627,21.928 36.305,21.568 C35.983,21.208 35.824,20.765 35.824,20.237 L35.824,19.037 C35.824,18.909 35.849,18.746 35.898,18.545 C35.998,18.12 36.207,17.775 36.529,17.508 C36.853,17.247 37.21,17.116 37.605,17.116 C38.19,17.116 38.654,17.36 39.001,17.835 C39.321,18.288 39.476,18.868 39.476,19.569 C39.476,20.333 39.309,20.946 38.972,21.412 Z M38.126,15.845 C37.036,15.845 36.225,16.273 35.688,17.134 L35.661,17.134 L35.572,15.989 L34.161,15.989 C34.201,16.8 34.222,17.593 34.222,18.362 L34.222,26.136 L35.824,26.136 L35.824,22.347 C36.242,23.029 36.927,23.373 37.886,23.373 C38.773,23.373 39.513,23.054 40.109,22.425 C40.777,21.708 41.112,20.743 41.112,19.511 C41.112,18.413 40.827,17.526 40.259,16.854 C39.686,16.179 38.978,15.845 38.126,15.845 Z M61.99,10.321 C61.427,10.321 61.066,9.778 61.066,9.063 C61.066,8.446 61.335,7.794 61.998,7.794 C62.64,7.794 62.897,8.467 62.897,9.048 C62.897,9.803 62.526,10.321 61.99,10.321 Z M62.023,7.115 C60.9,7.115 60.099,7.865 60.099,9.085 C60.099,10.284 60.914,11.003 61.961,11.003 C62.908,11.003 63.869,10.391 63.869,9.026 C63.869,7.895 63.127,7.115 62.023,7.115 Z M55.693,7.76 C56.318,7.76 56.47,8.323 56.461,8.667 L54.828,8.667 C54.866,8.285 55.112,7.76 55.693,7.76 Z M55.844,10.993 C56.379,10.993 56.819,10.895 57.14,10.758 L57.005,10.117 C56.715,10.216 56.406,10.284 55.974,10.284 C55.371,10.284 54.852,9.993 54.828,9.321 L57.317,9.321 C57.332,9.238 57.347,9.1 57.347,8.926 C57.347,8.108 56.951,7.115 55.745,7.115 C54.554,7.115 53.928,8.085 53.928,9.114 C53.928,10.253 54.639,10.993 55.844,10.993 Z M51.897,10.917 L52.835,10.917 L52.835,5.499 L51.897,5.499 L51.897,10.917 Z M45.228,9.1 L45.228,9.612 C45.228,9.682 45.228,9.75 45.207,9.82 C45.115,10.087 44.848,10.329 44.467,10.329 C44.17,10.329 43.933,10.16 43.933,9.794 C43.933,9.231 44.566,9.093 45.228,9.1 Z M43.001,9.895 C43.001,10.46 43.422,11.003 44.17,11.003 C44.658,11.003 45.048,10.794 45.267,10.503 L45.291,10.503 L45.358,10.917 L46.207,10.917 C46.161,10.688 46.144,10.36 46.144,10.023 L46.144,8.687 C46.144,7.87 45.803,7.115 44.611,7.115 C44.025,7.115 43.543,7.276 43.267,7.443 L43.453,8.055 C43.703,7.895 44.086,7.78 44.45,7.78 C45.109,7.78 45.207,8.185 45.207,8.43 L45.207,8.49 C43.834,8.481 43.001,8.961 43.001,9.895 Z M80.446,7.76 C81.074,7.76 81.226,8.323 81.219,8.667 L79.584,8.667 C79.623,8.285 79.867,7.76 80.446,7.76 Z M80.598,10.993 C81.136,10.993 81.574,10.895 81.898,10.758 L81.76,10.117 C81.469,10.216 81.165,10.284 80.73,10.284 C80.127,10.284 79.606,9.993 79.584,9.321 L82.073,9.321 C82.088,9.238 82.103,9.1 82.103,8.926 C82.103,8.108 81.707,7.115 80.5,7.115 C79.31,7.115 78.683,8.085 78.683,9.114 C78.683,10.253 79.394,10.993 80.598,10.993 Z M64.817,10.917 L65.756,10.917 L65.756,8.728 C65.756,8.621 65.769,8.506 65.803,8.43 C65.9,8.145 66.159,7.88 66.535,7.88 C67.048,7.88 67.246,8.285 67.246,8.815 L67.246,10.917 L68.183,10.917 L68.183,8.708 C68.183,7.536 67.511,7.115 66.862,7.115 C66.243,7.115 65.84,7.468 65.673,7.76 L65.648,7.76 L65.604,7.199 L64.787,7.199 C64.803,7.52 64.817,7.88 64.817,8.308 L64.817,10.917 Z M38.892,6.667 C39.222,6.667 39.426,6.437 39.426,6.163 C39.42,5.872 39.222,5.649 38.901,5.649 C38.588,5.649 38.373,5.872 38.373,6.163 C38.373,6.437 38.58,6.667 38.892,6.667 Z M77.268,18.841 C77.316,18.358 77.476,17.941 77.744,17.598 C78.07,17.163 78.496,16.938 79.018,16.938 C79.594,16.938 80.019,17.166 80.3,17.611 C80.513,17.958 80.617,18.368 80.609,18.841 L77.268,18.841 Z M79.14,15.827 C78.082,15.827 77.24,16.215 76.613,16.985 C76.02,17.712 75.722,18.613 75.722,19.704 C75.722,20.813 76.046,21.696 76.682,22.353 C77.321,23.011 78.199,23.34 79.314,23.34 C80.249,23.34 81.058,23.194 81.738,22.895 L81.485,21.779 C80.9,22.013 80.254,22.125 79.541,22.125 C78.894,22.125 78.372,21.956 77.969,21.618 C77.52,21.241 77.288,20.7 77.268,19.989 L82.081,19.989 C82.117,19.788 82.138,19.546 82.138,19.259 C82.138,18.358 81.925,17.599 81.501,16.985 C80.966,16.215 80.181,15.827 79.14,15.827 Z M26.765,7.483 C26.849,7.179 26.934,6.817 27.01,6.52 L27.026,6.52 C27.102,6.817 27.186,7.168 27.286,7.483 L27.689,8.749 L26.37,8.749 L26.765,7.483 Z M26.218,9.458 L27.842,9.458 L28.308,10.917 L29.323,10.917 L27.651,5.772 L26.453,5.772 L24.803,10.917 L25.773,10.917 L26.218,9.458 Z M76.232,7.88 C76.75,7.88 76.949,8.293 76.949,8.827 L76.949,10.917 L77.89,10.917 L77.89,8.728 C77.89,7.536 77.225,7.115 76.59,7.115 C76.354,7.115 76.133,7.179 75.94,7.284 C75.752,7.382 75.589,7.528 75.475,7.706 L75.461,7.706 L75.461,5.499 L74.521,5.499 L74.521,10.917 L75.461,10.917 L75.461,8.687 C75.461,8.591 75.468,8.49 75.5,8.405 C75.605,8.125 75.865,7.88 76.232,7.88 Z M38.428,10.917 L39.365,10.917 L39.365,7.199 L38.428,7.199 L38.428,10.917 Z M91.256,26.08 C91.256,27.838 89.692,29.269 87.771,29.269 L4.23,29.269 C2.308,29.269 0.744,27.838 0.744,26.08 L0.744,3.926 C0.744,2.165 2.308,0.731 4.23,0.731 L87.771,0.731 C89.692,0.731 91.256,2.165 91.256,3.926 L91.256,26.08 Z M87.771,0 L4.23,0 C1.897,0 0,1.762 0,3.926 L0,26.08 C0,28.241 1.897,30 4.23,30 L87.771,30 C90.103,30 92,28.241 92,26.08 L92,3.926 C92,1.762 90.103,0 87.771,0 Z" id="download_App_store" fill="#FFFFFF"></path>
    </g>
</svg>