<?xml version="1.0" encoding="UTF-8"?>
<svg width="21px" height="21px" viewBox="0 0 21 21" version="1.1" xmlns="http://www.w3.org/2000/svg" xmlns:xlink="http://www.w3.org/1999/xlink">
    <!-- Generator: Sketch 50.2 (55047) - http://www.bohemiancoding.com/sketch -->
    <title>icon_search</title>
    <desc>Created with Sketch.</desc>
    <defs></defs>
    <g id="desktop_v3.1" stroke="none" stroke-width="1" fill="none" fill-rule="evenodd">
        <g id="UI/Fill-1-Component-Copy-4" transform="translate(-11.000000, -8.000000)" fill="#574F39">
            <path d="M19,9 C22.859,9 26,12.14 26,16 C26,19.86 22.859,23 19,23 C15.141,23 12,19.86 12,16 C12,12.14 15.141,9 19,9 Z M31.354,27.646 L24.993,21.287 C26.238,19.876 27,18.029 27,16 C27,11.582 23.418,8 19,8 C14.582,8 11,11.582 11,16 C11,20.418 14.582,24 19,24 C21.029,24 22.876,23.238 24.286,21.994 L30.646,28.354 L31.354,27.646 Z" id="icon_search"></path>
        </g>
    </g>
</svg>