<?xml version="1.0" encoding="UTF-8"?>
<svg width="195px" height="28px" viewBox="0 0 195 28" version="1.1" xmlns="http://www.w3.org/2000/svg" xmlns:xlink="http://www.w3.org/1999/xlink">
    <!-- Generator: Sketch 46.1 (44463) - http://www.bohemiancoding.com/sketch -->
    <title>Kono_logo_green_horizontal</title>
    <desc>Created with Sketch.</desc>
    <defs>
        <polygon id="path-1" points="27.1082311 0.2688 0 0.2688 0 27.3775929 27.1082311 27.3775929 27.1082311 0.2688"></polygon>
        <polygon id="path-3" points="0 27.1089778 194.889956 27.1089778 194.889956 -2.20934382e-14 0 -2.20934382e-14"></polygon>
    </defs>
    <g id="desktop" stroke="none" stroke-width="1" fill="none" fill-rule="evenodd">
        <g id="Kono_logo_green_horizontal">
            <g id="Group-3" transform="translate(0.000000, 0.353609)">
                <mask id="mask-2" fill="white">
                    <use xlink:href="#path-1"></use>
                </mask>
                <g id="Clip-2"></g>
                <path d="M13.5562311,0.268613333 C13.07152,0.268613333 12.1724089,0.327102222 11.4879644,0.437235556 C5.43685333,1.42283556 -0.000124444444,6.63456889 -0.000124444444,13.8218578 C-0.000124444444,21.30968 6.06840889,27.3775911 13.5562311,27.3775911 C20.85552,27.3813244 26.8089422,21.6083467 27.0982756,14.3793689 L27.0982756,13.2985689 C27.0808533,12.8138578 27.0348089,12.3341244 26.9663644,11.8631022 C26.8176533,10.4743022 26.0230756,7.42354667 26.0230756,4.83696889 C26.0230756,2.02265778 27.1082311,0.272346667 27.1082311,0.272346667 L13.5562311,0.268613333 Z" id="Fill-1" fill="#8EC21F" mask="url(#mask-2)"></path>
            </g>
            <path d="M27.0543467,15.4108267 L18.1198578,6.47633778 L16.3739022,6.47633778 L16.3739022,6.64558222 C16.3739022,8.13082667 16.0117689,9.57749333 15.34288,10.8679822 L10.9512356,6.47633778 L9.20652444,6.47633778 L9.20652444,21.8788267 L14.9832356,27.65616 C21.3933689,26.9878933 26.4750578,21.8483378 27.0543467,15.4108267" id="Fill-4" fill="#749A27"></path>
            <mask id="mask-4" fill="white">
                <use xlink:href="#path-3"></use>
            </mask>
            <g id="Clip-7"></g>
            <path d="M9.2064,21.8787644 L10.9511111,21.8787644 L10.9511111,6.47627556 L9.2064,6.47627556 L9.2064,21.8787644 Z M16.3737778,21.8787644 L16.3737778,21.70952 C16.3737778,19.0856089 15.2475556,16.5824089 13.2825778,14.8420533 L13.2334222,14.79912 C12.8943111,14.4581422 12.8856,13.9236533 13.2097778,13.57832 C13.2402667,13.5465867 13.2726222,13.5179644 13.3062222,13.4905867 C15.2544,11.7570756 16.3737778,9.26072 16.3737778,6.64552 L16.3737778,6.47627556 L18.1197333,6.47627556 L18.1197333,6.64552 C18.1197333,9.46916444 17.0495111,12.1366311 15.1032,14.1768978 C17.0495111,16.2177867 18.1197333,18.8864978 18.1197333,21.70952 L18.1197333,21.8787644 L16.3737778,21.8787644 Z" id="Fill-6" fill="#FFFFFF" mask="url(#mask-4)"></path>
            <path d="M58.3442844,9.74325333 C56.6773511,9.74325333 55.1690844,10.4706311 54.07584,11.6472533 C52.9850844,12.8232533 52.4929067,14.4484978 52.4929067,16.2436089 C52.4929067,18.03872 52.9850844,19.6633422 54.07584,20.8399644 C55.1690844,22.0165867 56.6773511,22.7445867 58.3442844,22.7445867 C60.0137067,22.7445867 61.5225956,22.0165867 62.6145956,20.8399644 C63.7053511,19.6633422 64.1981511,18.03872 64.1981511,16.2436089 C64.1981511,14.4484978 63.7053511,12.8232533 62.6145956,11.6472533 C61.5225956,10.4706311 60.0137067,9.74325333 58.3442844,9.74325333 M58.3442844,11.6814756 C59.42944,11.6814756 60.45424,12.1425422 61.2301511,12.9788089 C62.1087289,13.9258311 62.2935289,15.2766756 62.2935289,16.2436089 C62.2935289,17.20992 62.1087289,18.5613867 61.2301511,19.5077867 C60.45424,20.3440533 59.42944,20.80512 58.3442844,20.80512 C57.2616178,20.80512 56.2368178,20.3440533 55.4602844,19.5077867 C54.5804622,18.5607644 54.3975289,17.20992 54.3975289,16.2436089 C54.3975289,15.2766756 54.5804622,13.9258311 55.4602844,12.9794311 C56.2368178,12.1425422 57.2616178,11.6814756 58.3442844,11.6814756" id="Fill-8" fill="#8DC11F" mask="url(#mask-4)"></path>
            <path d="M88.1796533,9.74325333 C86.51272,9.74325333 85.0025867,10.4706311 83.9099644,11.6472533 C82.8185867,12.8232533 82.3276533,14.4484978 82.3276533,16.2436089 C82.3276533,18.03872 82.8185867,19.6633422 83.9099644,20.8399644 C85.0025867,22.0165867 86.51272,22.7445867 88.1796533,22.7445867 C89.8459644,22.7445867 91.3554756,22.0165867 92.4493422,20.8399644 C93.54072,19.6633422 94.0322756,18.03872 94.0322756,16.2436089 C94.0322756,14.4484978 93.54072,12.8232533 92.4493422,11.6472533 C91.3554756,10.4706311 89.8459644,9.74325333 88.1796533,9.74325333 M88.1796533,11.6814756 C89.2635644,11.6814756 90.2883644,12.1425422 91.06552,12.9788089 C91.9434756,13.9258311 92.1276533,15.2766756 92.1276533,16.2436089 C92.1276533,17.20992 91.9434756,18.5613867 91.06552,19.5077867 C90.2883644,20.3440533 89.2635644,20.80512 88.1796533,20.80512 C87.0957422,20.80512 86.0709422,20.3440533 85.2944089,19.5077867 C84.4152089,18.5607644 84.2304089,17.20992 84.2304089,16.2436089 C84.2304089,15.2766756 84.4152089,13.9258311 85.2944089,12.9794311 C86.0709422,12.1425422 87.0957422,11.6814756 88.1796533,11.6814756" id="Fill-9" fill="#8DC11F" mask="url(#mask-4)"></path>
            <path d="M49.3261067,22.6281689 L47.3101067,22.6281689 C47.3101067,19.7111911 46.05944,16.9311022 43.8760622,14.9966133 C43.8536622,14.9791911 43.8337511,14.9611467 43.8150844,14.9399911 C43.4293067,14.5554578 43.4181067,13.9332356 43.7920622,13.5362578 C43.8262844,13.4995467 43.8629956,13.4653244 43.9021956,13.4348356 C46.0700178,11.5009689 47.3101067,8.73145778 47.3101067,5.82816889 L49.3261067,5.82816889 C49.3261067,8.96479111 48.1183733,11.96888 45.9773067,14.2281689 C48.1183733,16.4855911 49.3261067,19.4909244 49.3261067,22.6281689" id="Fill-10" fill="#8DC11F" mask="url(#mask-4)"></path>
            <polygon id="Fill-11" fill="#8DC11F" mask="url(#mask-4)" points="39.3169778 22.62792 41.3323556 22.62792 41.3323556 5.82792 39.3169778 5.82792"></polygon>
            <path d="M77.4068711,22.6281689 C77.1007378,22.6281689 76.8039378,22.4869244 76.6091822,22.2349244 L70.1256267,13.8262133 L70.1256267,22.6281689 L68.1096267,22.6281689 L68.1096267,10.8675467 C68.1096267,10.4363467 68.3858933,10.0524356 68.7940711,9.91430222 C69.2010044,9.77430222 69.65336,9.90994667 69.91656,10.2521689 L76.3988711,18.6615022 L76.3988711,9.85954667 L78.4142489,9.85954667 L78.4142489,21.6201689 C78.4142489,22.0513689 78.1398489,22.4346578 77.7322933,22.5734133 C77.6252711,22.6101244 77.5163822,22.6281689 77.4068711,22.6281689" id="Fill-12" fill="#8DC11F" mask="url(#mask-4)"></path>
            <path d="M148.678942,18.4679911 L145.106142,18.4679911 C144.991653,18.4679911 144.929431,18.3796356 144.966764,18.2719911 L146.853342,12.8717244 C146.890676,12.76408 146.951653,12.76408 146.988364,12.8723467 L148.819564,18.2713689 C148.856276,18.3796356 148.793431,18.4679911 148.678942,18.4679911 L148.678942,18.4679911 Z M147.739387,9.91243556 C147.699564,9.80541333 147.574498,9.71768 147.460009,9.71768 L146.285876,9.71768 C146.172009,9.71768 146.04632,9.80541333 146.00712,9.91243556 L141.382142,22.5479022 C141.342942,22.6549244 141.40392,22.7426578 141.518409,22.7426578 L143.204009,22.7426578 C143.318498,22.7426578 143.44232,22.6543022 143.479031,22.5466578 L144.241876,20.3265689 C144.279209,20.2189244 144.403031,20.1305689 144.516898,20.1305689 L149.248898,20.1305689 C149.362764,20.1305689 149.485964,20.2189244 149.522053,20.3271911 L150.268098,22.5460356 C150.304809,22.6543022 150.428009,22.7426578 150.541876,22.7426578 L152.228098,22.7426578 C152.341964,22.7426578 152.403564,22.6549244 152.364364,22.5479022 L147.739387,9.91243556 Z M167.956631,9.71768 L166.399209,9.71768 C166.28472,9.71768 166.191387,9.81101333 166.191387,9.92488 L166.191387,22.5348356 C166.191387,22.6493244 166.28472,22.7426578 166.399209,22.7426578 L167.956631,22.7426578 C168.07112,22.7426578 168.164453,22.6493244 168.164453,22.5348356 L168.164453,9.92488 C168.164453,9.81101333 168.07112,9.71768 167.956631,9.71768 L167.956631,9.71768 Z M162.494764,9.71768 L154.835209,9.71768 C154.721342,9.71768 154.628009,9.81101333 154.628009,9.92488 L154.628009,11.2819467 C154.628009,11.3964356 154.721342,11.4897689 154.835209,11.4897689 L160.192542,11.4897689 C160.307031,11.4897689 160.350587,11.5687911 160.289609,11.6652356 L154.495476,20.8759911 C154.434498,20.9730578 154.384098,21.1454133 154.383476,21.25928 L154.374142,22.5348356 C154.372898,22.6493244 154.465609,22.7426578 154.580098,22.7426578 L162.494764,22.7426578 C162.609253,22.7426578 162.702587,22.6493244 162.702587,22.5348356 L162.702587,21.1783911 C162.702587,21.0645244 162.609253,20.9705689 162.494764,20.9705689 L156.863653,20.9705689 C156.749164,20.9705689 156.705609,20.8915467 156.765964,20.7951022 L162.591831,11.5009689 C162.652809,11.4045244 162.702587,11.2315467 162.702587,11.11768 L162.702587,9.92488 C162.702587,9.81101333 162.609253,9.71768 162.494764,9.71768 L162.494764,9.71768 Z M188.758764,11.4897689 L194.68232,11.4897689 C194.796809,11.4897689 194.890142,11.3964356 194.890142,11.2819467 L194.890142,9.92488 C194.890142,9.81101333 194.796809,9.71768 194.68232,9.71768 L186.785698,9.71768 C186.671209,9.71768 186.577876,9.81101333 186.577876,9.92488 L186.577876,22.5348356 C186.577876,22.6493244 186.671209,22.7426578 186.785698,22.7426578 L194.68232,22.7426578 C194.796809,22.7426578 194.890142,22.6493244 194.890142,22.5348356 L194.890142,21.1783911 C194.890142,21.0645244 194.796809,20.9705689 194.68232,20.9705689 L188.758764,20.9705689 C188.644276,20.9705689 188.550942,20.8772356 188.550942,20.7633689 L188.550942,17.2509244 C188.550942,17.1364356 188.644276,17.0431022 188.758764,17.0431022 L193.750853,17.0431022 C193.865342,17.0431022 193.958676,16.9497689 193.958676,16.8359022 L193.958676,15.49688 C193.958676,15.3823911 193.865342,15.2890578 193.750853,15.2890578 L188.758764,15.2890578 C188.644276,15.2890578 188.550942,15.1957244 188.550942,15.0818578 L188.550942,11.6975911 C188.550942,11.5831022 188.644276,11.4897689 188.758764,11.4897689 L188.758764,11.4897689 Z M113.408898,9.71768 L111.850853,9.71768 C111.736987,9.71768 111.604453,9.80230222 111.556542,9.90621333 L108.003031,17.6223911 C107.95512,17.72568 107.87672,17.7263022 107.828187,17.6230133 L104.204987,9.90559111 C104.156453,9.80230222 104.023298,9.71768 103.909431,9.71768 L102.351387,9.71768 C102.236898,9.71768 102.143564,9.81101333 102.143564,9.92488 L102.143564,22.5348356 C102.143564,22.6493244 102.236898,22.7426578 102.351387,22.7426578 L103.909431,22.7426578 C104.023298,22.7426578 104.116631,22.6493244 104.116631,22.5348356 L104.116631,14.2238133 C104.116631,14.1093244 104.157698,14.0999911 104.207476,14.2026578 L107.106409,20.1753689 C107.156809,20.2780356 107.290587,20.3626578 107.405076,20.36328 L108.441698,20.3676356 C108.555564,20.3682578 108.68872,20.2842578 108.737876,20.1809689 L111.554676,14.2287911 C111.603209,14.1255022 111.643031,14.1348356 111.643031,14.2487022 L111.643031,22.5348356 C111.643031,22.6493244 111.736987,22.7426578 111.850853,22.7426578 L113.408898,22.7426578 C113.522764,22.7426578 113.616098,22.6493244 113.616098,22.5348356 L113.616098,9.92488 C113.616098,9.81101333 113.522764,9.71768 113.408898,9.71768 L113.408898,9.71768 Z M138.92872,15.7090578 L134.649698,15.7090578 C134.535209,15.7090578 134.441876,15.8030133 134.441876,15.91688 L134.441876,17.1644356 C134.441876,17.2783022 134.535209,17.3722578 134.649698,17.3722578 L136.956276,17.3722578 C137.070142,17.3722578 137.163476,17.4655911 137.163476,17.5794578 L137.163476,17.87688 C137.163476,17.9907467 137.157876,18.1774133 137.150409,18.2919022 C137.150409,18.2919022 137.130498,18.5843467 137.083831,18.8830133 C137.060809,19.0049689 137.04152,19.1281689 137.008542,19.2445244 C136.905253,19.6035467 136.663831,19.9967911 136.286764,20.4223911 C135.909076,20.8492356 135.29432,21.0620356 134.441876,21.0620356 C133.637964,21.0620356 133.03192,20.8399022 132.624364,20.3950133 C132.215564,19.9507467 131.966676,19.4847022 131.875209,18.9981244 C131.783742,18.5109244 131.73832,17.5850578 131.73832,16.2211467 C131.73832,14.9057689 131.786231,13.9892356 131.88392,13.4715467 C131.981609,12.95448 132.164542,12.5494133 132.432098,12.2569689 C132.700276,11.9645244 133.007653,11.74488 133.354853,11.59928 C133.702053,11.4530578 134.064187,11.3796356 134.441876,11.3796356 C134.990053,11.3796356 135.446764,11.4823022 135.812009,11.6857689 C136.177253,11.8892356 136.882853,12.5363467 136.882853,12.5363467 C136.966853,12.6135022 137.101253,12.6103911 137.18152,12.52888 L138.223742,11.4729689 C138.304009,11.3914578 138.299031,11.2639022 138.213164,11.1886133 C138.213164,11.1886133 137.151653,10.2627467 136.579209,10.0001689 C136.006764,9.73883556 135.29432,9.60816889 134.441876,9.60816889 C133.089787,9.60816889 132.036364,9.98523556 131.281609,10.7406133 C130.526231,11.4959911 130.085076,12.2177689 129.956898,12.9053244 C129.82872,13.5935022 129.765253,14.6991911 129.765253,16.2211467 C129.765253,17.7555467 129.82872,18.8637244 129.956898,19.54568 C130.085076,20.2282578 130.526231,20.9463022 131.281609,21.70168 C132.036364,22.4570578 133.089787,22.8341244 134.441876,22.8341244 C135.866764,22.8341244 137.048364,22.3357244 137.986053,21.3395467 C138.424098,20.87848 138.725876,20.37448 138.890142,19.8275467 C138.906942,19.7715467 138.922498,19.7049689 138.937431,19.6327911 C139.068098,19.1119911 139.136542,18.45928 139.136542,17.6591022 L139.133431,17.65848 C139.135298,17.5838133 139.136542,17.5085244 139.136542,17.45128 L139.136542,15.91688 C139.136542,15.8030133 139.043209,15.7090578 138.92872,15.7090578 L138.92872,15.7090578 Z M182.05992,9.71768 L180.501876,9.71768 C180.387387,9.71768 180.294053,9.81101333 180.294053,9.92488 L180.294053,18.6509244 C180.294053,18.7647911 180.243031,18.7803467 180.180187,18.6851467 L174.396009,9.89190222 C174.333787,9.79670222 174.188809,9.71830222 174.07432,9.71830222 L172.683031,9.71768 C172.569164,9.71768 172.475209,9.81101333 172.475209,9.92488 L172.475209,22.5348356 C172.475209,22.6493244 172.569164,22.7426578 172.683031,22.7426578 L174.241076,22.7426578 C174.354942,22.7426578 174.448276,22.6493244 174.448276,22.5348356 L174.448276,13.7795467 C174.448276,13.66568 174.49992,13.6501244 174.562142,13.7459467 L180.345076,22.5684356 C180.40792,22.6642578 180.552276,22.7420356 180.666764,22.7420356 L182.05992,22.7426578 C182.173787,22.7426578 182.26712,22.6493244 182.26712,22.5348356 L182.26712,9.92488 C182.26712,9.81101333 182.173787,9.71768 182.05992,9.71768 L182.05992,9.71768 Z M123.72472,18.4679911 L120.15192,18.4679911 C120.038053,18.4679911 119.975209,18.3796356 120.013164,18.2719911 L121.89912,12.8717244 C121.937076,12.76408 121.997431,12.76408 122.034142,12.8723467 L123.865964,18.2713689 C123.902676,18.3796356 123.839209,18.4679911 123.72472,18.4679911 L123.72472,18.4679911 Z M122.785164,9.91243556 C122.745964,9.80541333 122.620276,9.71768 122.505787,9.71768 L121.331653,9.71768 C121.217787,9.71768 121.092098,9.80541333 121.052898,9.91243556 L116.42792,22.5479022 C116.38872,22.6549244 116.449698,22.7426578 116.564187,22.7426578 L118.249787,22.7426578 C118.364276,22.7426578 118.487476,22.6543022 118.524809,22.5466578 L119.288276,20.3265689 C119.324987,20.2189244 119.448809,20.1305689 119.563298,20.1305689 L124.294676,20.1305689 C124.408542,20.1305689 124.531742,20.2189244 124.568453,20.3271911 L125.313876,22.5460356 C125.350587,22.6543022 125.473787,22.7426578 125.587653,22.7426578 L127.273876,22.7426578 C127.387742,22.7426578 127.449342,22.6549244 127.410142,22.5479022 L122.785164,9.91243556 Z" id="Fill-13" fill="#5F9417" mask="url(#mask-4)"></path>
        </g>
    </g>
</svg>